<?xml version="1.0" encoding="utf-8"?>
<!-- Generator: Adobe Illustrator 16.0.0, SVG Export Plug-In . SVG Version: 6.00 Build 0)  -->
<!DOCTYPE svg PUBLIC "-//W3C//DTD SVG 1.1//EN" "http://www.w3.org/Graphics/SVG/1.1/DTD/svg11.dtd">
<svg version="1.1" id="Layer_1" xmlns="http://www.w3.org/2000/svg" xmlns:xlink="http://www.w3.org/1999/xlink" x="0px" y="0px"
	 width="160.101px" height="33.001px" viewBox="341 281.5 160.101 33.001" enable-background="new 341 281.5 160.101 33.001"
	 xml:space="preserve">
<polygon fill="#069180" points="341.1,281.8 401.301,287.2 404.801,287.6 400.801,287.9 386.9,305.9 394.3,305.9 412.7,281.8 "/>
<polygon fill="#069180" points="341,288.3 387.4,293.7 391,294.2 386.9,294.3 378.7,305.9 385,305.9 398.801,287.8 "/>
<polygon fill="#069180" points="341.1,294.9 374.6,298.8 377.9,299.2 374.1,299.5 369.6,305.8 375.9,305.8 384.7,294.3 "/>
<polygon fill="#069180" points="397.001,305.8 415.6,281.7 501.1,281.5 418.4,287 414.1,287.3 417.9,287.7 403.7,305.8 "/>
<polygon fill="#069180" points="406.501,305.8 420.1,288.1 501.1,287.7 422.9,293.4 418.6,293.6 422.4,294 413.2,305.8 "/>
<polygon fill="#069180" points="415.301,305.8 424.1,294.1 501.1,293.9 426.6,298.8 422.501,299 426.1,299.4 421.1,305.8 "/>
<g>
	<path fill="#58595B" d="M375.2,308.9v5.6h-1.9v-5.6H369.6v-1.2h9.3v1.2H375.2z M387.2,308.9H383v1.9h4.2c0.3,0,0.5,0,0.7-0.101
		c0.1-0.1,0.2-0.2,0.2-0.399V309.5c0-0.199-0.101-0.3-0.2-0.399C387.8,308.9,387.6,308.9,387.2,308.9 M381.2,314.5v-6.8h6.9
		c0.6,0,1.1,0.101,1.399,0.3c0.3,0.2,0.4,0.5,0.4,1v1.601c0,0.5-0.101,0.8-0.4,1s-0.8,0.3-1.399,0.3h-1l3.699,2.6H388l-3.2-2.6H383
		v2.6H381.2z M395.2,311.801h3.5L397.001,309L395.2,311.801z M391.6,314.5l4.5-6.8h1.8l4.601,6.8H400.4l-1-1.5H394.3l-0.899,1.5
		H391.6z M405.1,314.5v-6.8h1.3l5.7,4c0.2,0.101,0.4,0.3,0.5,0.4c0.1,0.1,0.3,0.2,0.4,0.399c0-0.399,0-0.699-0.101-0.8
		c0-0.2,0-0.3,0-0.399V307.7h1.7v6.8h-1.3l-5.9-4.199c-0.1-0.101-0.3-0.2-0.399-0.301c-0.101-0.1-0.2-0.199-0.301-0.3
		c0,0.2,0,0.4,0.101,0.601c0,0.2,0,0.3,0,0.5v3.7L405.1,314.5L405.1,314.5z M425.6,308.9h-5.3v1.5h5c0.8,0,1.3,0.1,1.6,0.3
		s0.4,0.7,0.4,1.3v0.9c0,0.6-0.101,1-0.4,1.3c-0.3,0.2-0.8,0.3-1.6,0.3h-5c-0.8,0-1.3-0.1-1.601-0.3c-0.3-0.2-0.399-0.6-0.399-1.3
		v-0.2l1.6-0.3v0.8h5.7v-1.6h-5c-0.8,0-1.3-0.101-1.6-0.3c-0.301-0.2-0.4-0.7-0.4-1.301v-0.8c0-0.6,0.1-1,0.4-1.3
		c0.3-0.2,0.8-0.3,1.6-0.3h4.6c0.801,0,1.301,0.1,1.601,0.3s0.399,0.6,0.399,1.2v0.1l-1.699,0.3v-0.6H425.6z M433.1,313.2h2.4
		c1.3,0,2.199-0.2,2.699-0.5s0.801-0.899,0.801-1.7c0-0.699-0.2-1.199-0.7-1.6c-0.4-0.4-1.101-0.5-2-0.5h-3.3v4.3H433.1z
		 M431.2,314.5v-6.8h5.2c1.5,0,2.601,0.3,3.4,0.9c0.8,0.6,1.2,1.399,1.2,2.5c0,0.6-0.2,1.2-0.5,1.7c-0.301,0.5-0.7,0.899-1.301,1.2
		c-0.3,0.199-0.8,0.3-1.3,0.399c-0.5,0.101-1.2,0.101-2,0.101L431.2,314.5L431.2,314.5z M446.2,311.801h3.5L448.001,309
		L446.2,311.801z M442.6,314.5l4.5-6.8h1.8l4.601,6.8H451.4l-1-1.5h-5.1l-0.9,1.5H442.6z M458.801,308.9h3.7v-1.2H453.2v1.2h3.7v5.6
		h1.9V308.9L458.801,308.9z M464.7,309.301c0-0.601,0.101-1,0.4-1.301c0.3-0.199,0.8-0.3,1.6-0.3h5.9c0.8,0,1.3,0.101,1.6,0.3
		c0.301,0.2,0.4,0.7,0.4,1.301v3.6c0,0.6-0.1,1-0.4,1.3c-0.3,0.2-0.8,0.3-1.6,0.3h-5.9c-0.8,0-1.3-0.1-1.6-0.3s-0.4-0.6-0.4-1.3
		V309.301z M466.501,313.2h6.199v-4.3h-6.199V313.2z M485.501,308.9H480.2v1.5h5c0.801,0,1.301,0.1,1.601,0.3s0.399,0.7,0.399,1.3
		v0.9c0,0.6-0.1,1-0.399,1.3c-0.3,0.2-0.8,0.3-1.601,0.3h-5c-0.8,0-1.3-0.1-1.6-0.3s-0.4-0.6-0.4-1.3v-0.2l1.601-0.3v0.8h5.7v-1.6
		h-5c-0.801,0-1.301-0.101-1.601-0.3c-0.3-0.2-0.399-0.7-0.399-1.301v-0.8c0-0.6,0.1-1,0.399-1.3c0.3-0.2,0.8-0.3,1.601-0.3h4.6
		c0.8,0,1.3,0.1,1.6,0.3c0.301,0.2,0.4,0.6,0.4,1.2v0.1l-1.6,0.3V308.9L485.501,308.9z"/>
</g>
</svg>
